<?xml version="1.0" standalone="no"?>
<!DOCTYPE svg PUBLIC "-//W3C//DTD SVG 20010904//EN"
 "http://www.w3.org/TR/2001/REC-SVG-20010904/DTD/svg10.dtd">
<svg version="1.0" xmlns="http://www.w3.org/2000/svg"
 width="1920.000000pt" height="1920.000000pt" viewBox="0 0 1920.000000 1920.000000"
 preserveAspectRatio="xMidYMid meet">
<metadata>
Created by potrace 1.11, written by Peter Selinger 2001-2013
</metadata>
<g transform="translate(0.000000,1920.000000) scale(0.100000,-0.100000)"
fill="#000000" stroke="none">
<path d="M2135 18866 c-311 -46 -594 -168 -845 -365 -81 -64 -205 -191 -193
-199 7 -5 6 -11 -5 -22 -14 -13 -15 -12 -8 5 7 19 6 19 -11 2 -17 -18 -17 -19
1 -33 23 -16 14 -19 -14 -4 -14 8 -23 3 -44 -24 -23 -31 -24 -35 -9 -47 14
-12 15 -11 9 8 -7 23 8 41 20 22 4 -8 3 -9 -4 -5 -14 9 -15 1 -3 -23 8 -14 6
-18 -7 -18 -9 0 -23 5 -31 11 -12 9 -13 8 -8 -6 3 -10 2 -18 -3 -18 -6 0 -10
-10 -10 -22 0 -19 -2 -20 -11 -8 -8 12 -9 10 -4 -7 5 -18 3 -21 -15 -18 -11 2
-18 0 -15 -5 7 -11 35 -6 44 9 4 6 15 9 24 5 19 -7 22 -20 7 -29 -7 -4 -10
-683 -10 -2004 l0 -1998 27 -12 c20 -9 24 -14 14 -21 -10 -6 -7 -10 10 -15 13
-4 31 -14 40 -21 26 -23 61 -25 89 -7 14 10 27 18 30 18 3 1 25 12 50 25 46
25 99 50 106 50 8 0 4 -47 -13 -152 l-17 -107 85 -86 c46 -47 85 -89 87 -94 4
-11 -20 -16 -123 -31 -119 -16 -119 -16 -143 -59 -13 -22 -22 -42 -21 -43 2
-2 -5 -15 -15 -30 -10 -16 -16 -35 -12 -43 3 -9 2 -13 -4 -10 -5 3 -12 -6 -16
-20 -3 -14 -11 -25 -16 -25 -6 0 -8 -7 -4 -15 9 -23 -17 -13 -36 15 -11 15
-18 19 -18 10 0 -11 -3 -11 -12 -2 -10 10 -10 15 1 21 11 7 9 11 -8 20 -11 7
-20 19 -20 29 1 16 2 16 6 0 2 -10 9 -18 14 -18 11 0 -5 35 -21 45 -6 3 -10
16 -10 28 0 18 -2 19 -10 7 -5 -8 -10 -11 -10 -7 0 4 -6 2 -13 -4 -16 -15 -22
-79 -7 -79 13 0 13 -67 0 -72 -14 -4 -14 -1568 0 -1582 7 -7 10 -6 10 2 0 7 5
12 11 12 6 0 9 -9 6 -20 -3 -11 0 -23 5 -27 7 -4 8 -1 4 8 -4 8 0 5 8 -5 9
-11 16 -26 16 -33 0 -25 162 -183 274 -267 220 -165 454 -269 731 -323 141
-28 494 -25 635 5 540 115 974 444 1218 924 103 202 163 418 183 658 7 86 9
829 4 2355 -7 2455 -4 2325 -70 2554 -107 367 -350 709 -665 933 -187 133
-442 242 -676 288 -138 28 -424 36 -559 16z m814 -531 c59 -30 112 -55 118
-55 5 0 58 25 117 56 59 31 109 54 111 52 3 -2 -5 -59 -16 -127 l-21 -123 92
-93 92 -93 -48 -10 c-27 -6 -85 -16 -130 -22 l-81 -12 -54 -110 c-30 -60 -57
-112 -61 -114 -4 -3 -33 46 -64 108 -31 62 -57 114 -58 115 -1 1 -59 10 -129
19 -70 10 -127 21 -127 24 0 4 41 47 91 96 l92 89 -17 105 c-10 58 -20 115
-23 128 -3 12 -2 22 2 22 4 0 55 -25 114 -55z m-1551 -95 l110 -60 116 60
c135 70 126 79 97 -92 l-17 -107 89 -91 c49 -50 87 -93 85 -96 -5 -4 -39 -10
-216 -40 -30 -5 -37 -14 -93 -126 l-61 -121 -50 99 c-28 54 -56 108 -63 120
-13 21 -73 36 -203 50 -34 4 -64 10 -67 14 -2 4 38 48 90 98 108 103 100 74
69 252 -16 100 -16 100 -6 100 5 0 59 -27 120 -60z m56 -1270 l109 -60 119 61
120 61 -6 -29 c-3 -15 -13 -74 -22 -131 l-18 -103 89 -89 c49 -49 86 -92 83
-95 -3 -4 -59 -15 -123 -25 -65 -11 -119 -21 -120 -22 -2 -2 -29 -57 -62 -122
l-60 -119 -58 117 c-38 77 -66 120 -79 125 -12 5 -70 14 -129 21 -59 7 -110
16 -112 20 -3 4 38 50 91 101 74 73 94 98 89 114 -3 11 -12 62 -20 112 -9 51
-18 99 -21 108 -10 26 17 17 130 -45z m1550 -11 l118 62 -6 -28 c-2 -15 -12
-75 -22 -132 l-16 -103 92 -93 91 -92 -108 -17 c-59 -10 -117 -20 -129 -23
-15 -3 -37 -36 -77 -119 -31 -63 -59 -114 -62 -114 -3 0 -30 51 -61 112 -30
62 -60 115 -65 119 -5 3 -53 11 -107 18 -162 21 -157 10 -52 116 l92 93 -21
125 c-11 69 -21 128 -21 132 0 3 53 -22 118 -56 l119 -62 117 62z m-1839 -369
c3 -5 1 -10 -4 -10 -6 0 -11 5 -11 10 0 6 2 10 4 10 3 0 8 -4 11 -10z m538
-1041 l109 -61 113 58 c63 32 117 56 120 53 3 -4 -4 -61 -16 -129 l-21 -122
92 -93 93 -94 -34 -5 c-154 -24 -222 -36 -224 -38 -2 -2 -28 -54 -59 -116 -31
-62 -60 -111 -64 -108 -4 2 -31 54 -61 114 l-55 111 -60 10 c-34 5 -89 13
-124 17 -34 4 -65 11 -69 17 -3 6 35 50 85 98 51 47 92 89 92 92 0 3 -9 59
-20 124 -22 133 -22 133 -13 133 3 0 55 -27 116 -61z m1451 -725 l111 -57 114
57 c62 32 115 56 117 53 2 -2 -6 -58 -18 -126 l-21 -122 93 -94 c107 -108 113
-95 -59 -120 -58 -9 -106 -17 -107 -18 -1 -1 -28 -55 -61 -120 l-58 -118 -59
120 -60 119 -115 17 c-64 9 -122 19 -130 21 -10 3 16 36 79 99 l93 94 -17 103
c-10 57 -20 113 -23 126 -3 12 -2 22 2 22 4 0 58 -25 119 -56z m-2074 -794 c0
-5 -7 -7 -15 -4 -8 4 -15 8 -15 10 0 2 7 4 15 4 8 0 15 -4 15 -10z m1495 -142
l110 -56 115 59 c62 32 115 57 117 56 1 -2 -7 -60 -19 -131 l-21 -127 88 -89
c49 -49 87 -91 84 -94 -2 -2 -59 -12 -125 -22 l-121 -17 -57 -119 c-32 -66
-60 -117 -62 -115 -3 2 -31 56 -62 118 l-57 114 -125 18 c-69 11 -127 21 -130
24 -3 3 37 44 89 93 l94 87 -17 109 c-10 60 -20 120 -23 133 -3 13 -2 22 3 20
5 -2 59 -29 119 -61z m657 -1045 l111 -57 111 57 c61 32 114 58 117 57 3 0 -2
-48 -12 -107 -11 -60 -19 -118 -19 -130 0 -13 31 -52 86 -107 48 -48 84 -89
81 -92 -3 -3 -45 -12 -94 -20 -48 -8 -103 -17 -121 -20 -31 -5 -37 -13 -89
-120 -31 -62 -59 -114 -63 -114 -3 0 -30 52 -59 115 -60 129 -39 114 -196 135
-140 20 -137 9 -29 113 l96 93 -21 114 c-22 122 -24 140 -15 140 3 0 55 -26
116 -57z m-1252 -594 l114 -62 114 57 c63 31 116 55 119 53 2 -3 -6 -60 -17
-127 l-22 -122 92 -93 93 -94 -34 -5 c-19 -3 -63 -10 -99 -16 -36 -6 -79 -13
-96 -15 -28 -5 -36 -15 -83 -115 -29 -60 -56 -112 -61 -115 -5 -3 -35 45 -66
107 -31 62 -57 114 -59 116 -1 1 -57 11 -123 20 -67 10 -123 20 -127 23 -3 3
36 47 87 96 l91 91 -16 98 c-9 55 -19 114 -23 132 -4 17 -4 32 -2 32 3 0 56
-28 118 -61z m-970 -435 c0 -8 -4 -12 -10 -9 -5 3 -10 10 -10 16 0 5 5 9 10 9
6 0 10 -7 10 -16z"/>
<path d="M15750 18739 c-239 -28 -491 -112 -685 -229 -436 -263 -711 -648
-826 -1156 -23 -99 -23 -99 -29 -1354 -3 -690 -5 -1752 -5 -2360 2 -1082 2
-1107 23 -1215 57 -295 157 -527 327 -754 122 -163 300 -326 474 -436 150 -94
374 -181 576 -225 142 -31 416 -38 580 -15 589 81 1089 451 1339 987 57 121
111 292 138 431 l22 112 4 2225 c3 2316 2 2414 -39 2613 -106 524 -473 991
-956 1218 -290 136 -633 193 -943 158z m805 -760 l114 -60 118 60 c65 33 119
58 121 57 1 -2 -7 -61 -19 -131 l-21 -127 93 -94 c51 -51 91 -95 88 -98 -2 -3
-61 -13 -129 -23 l-125 -18 -60 -117 c-33 -65 -62 -118 -65 -118 -3 0 -32 53
-65 117 l-60 118 -122 17 c-67 9 -127 18 -133 20 -6 2 32 47 86 99 l96 96 -21
125 c-23 139 -23 138 -16 138 3 0 56 -27 120 -61z m-1534 -275 c-52 -85 -74
-166 -79 -296 -7 -177 28 -332 109 -488 100 -192 271 -349 411 -377 49 -10 40
-21 -22 -28 -241 -28 -523 133 -637 365 -53 107 -73 190 -73 310 0 207 94 404
249 520 36 27 67 48 69 46 1 -2 -11 -25 -27 -52z m1137 -2046 c-131 -203 -158
-417 -88 -693 83 -330 309 -609 555 -685 64 -20 62 -28 -10 -35 -132 -15 -260
12 -405 82 -81 40 -109 61 -191 142 -82 82 -103 110 -142 191 -64 128 -87 226
-87 360 0 198 70 383 197 520 86 93 210 178 171 118z m599 -165 l94 -48 90 48
c50 27 92 47 94 45 2 -2 -4 -50 -13 -106 l-16 -102 72 -73 c40 -40 72 -75 72
-78 0 -3 -45 -12 -101 -19 l-100 -12 -47 -94 c-26 -52 -50 -94 -54 -94 -5 0
-29 42 -55 94 l-46 93 -104 13 c-56 7 -103 16 -103 19 0 3 34 40 75 81 l75 76
-19 102 c-10 56 -16 102 -13 102 3 0 47 -21 99 -47z m-1702 -324 l114 -60 116
62 c64 33 118 59 120 57 2 -2 -5 -61 -17 -132 l-21 -127 93 -94 c52 -52 92
-96 89 -98 -2 -2 -58 -12 -124 -22 -66 -10 -125 -21 -131 -26 -6 -5 -35 -59
-64 -119 -30 -61 -56 -110 -60 -110 -3 0 -30 50 -60 111 -30 61 -59 114 -65
119 -5 5 -64 16 -130 25 -66 10 -122 19 -124 22 -3 2 37 46 88 97 l94 94 -22
121 c-22 129 -24 141 -16 141 3 0 56 -27 120 -61z m-177 -1721 c-70 -105 -118
-280 -118 -430 0 -85 30 -257 62 -358 35 -110 120 -282 178 -360 59 -80 156
-176 225 -223 66 -45 178 -96 213 -97 25 0 30 -15 6 -24 -37 -14 -222 -6 -300
14 -552 140 -814 770 -522 1254 61 100 148 193 232 248 33 21 60 38 62 38 2 0
-16 -28 -38 -62z m1805 -884 c13 3 68 30 122 60 55 29 101 53 103 51 1 -1 -7
-62 -20 -136 l-22 -133 94 -88 c51 -48 90 -91 87 -94 -5 -6 -221 -43 -248 -44
-4 0 -33 -54 -65 -120 -32 -66 -60 -120 -63 -120 -3 0 -33 54 -65 119 l-59
119 -73 11 c-40 6 -98 14 -128 17 -31 4 -59 10 -61 15 -3 4 38 48 91 97 l96
90 -21 125 c-11 69 -21 130 -21 136 0 7 52 -16 115 -50 81 -43 122 -59 138
-55z"/>
<path d="M11010 18006 c25 -50 45 -71 35 -37 -4 14 -18 36 -31 50 l-24 26 20
-39z"/>
<path d="M11047 17933 c-2 -5 0 -21 4 -38 7 -29 7 -29 8 8 1 35 -3 46 -12 30z"/>
<path d="M11230 17870 c-45 -8 -77 -26 -119 -66 -26 -24 -30 -32 -17 -31 11 1
21 -5 23 -13 4 -13 3 -13 -6 0 -9 12 -11 11 -11 -7 0 -13 5 -23 11 -23 6 0 9
-7 5 -15 -3 -8 -1 -15 4 -15 5 0 14 -18 20 -39 6 -22 17 -52 25 -68 8 -15 15
-36 15 -46 0 -10 7 -28 15 -41 8 -12 16 -35 17 -50 3 -35 33 -43 95 -22 109
36 164 95 171 182 9 105 -37 193 -120 232 -55 26 -85 31 -128 22z"/>
<path d="M12770 17856 c-9 -12 -8 -15 8 -13 12 0 18 6 15 14 -6 16 -8 16 -23
-1z"/>
<path d="M12811 17759 c-11 -26 -11 -33 4 -56 15 -23 16 -25 1 -20 -14 6 -16
-29 -18 -364 l-3 -369 30 5 c29 5 5 -5 -250 -113 -66 -27 -154 -67 -195 -87
-61 -29 -68 -35 -40 -31 19 2 30 2 23 0 -7 -3 -9 -21 -7 -47 10 -91 20 -117
43 -117 13 -1 13 -3 -4 -17 -16 -12 -16 -14 -3 -10 10 3 20 2 23 -3 4 -6 1
-10 -6 -10 -7 0 -10 -3 -6 -6 6 -6 345 98 380 117 19 11 23 -1 5 -19 -9 -9 -9
-12 2 -12 9 0 8 -5 -6 -15 -17 -13 -17 -14 -1 -15 9 0 17 -4 17 -10 0 -19 2
-25 12 -37 7 -9 7 -13 -2 -13 -7 0 -10 -8 -7 -20 3 -11 1 -20 -4 -20 -12 0
-423 -176 -468 -201 -36 -19 -36 -19 -6 -13 17 3 36 7 43 10 7 2 10 -1 7 -6
-3 -6 -16 -10 -28 -11 -12 0 -16 -3 -9 -6 6 -2 12 -13 12 -24 0 -10 5 -19 11
-19 5 0 7 -4 4 -10 -3 -5 4 -32 16 -59 11 -27 18 -55 14 -60 -4 -7 1 -8 12 -4
16 6 16 5 4 -10 -12 -15 -12 -17 0 -13 178 57 278 89 294 96 16 7 85 30 89 30
7 0 3 -60 -4 -60 -6 0 -10 -7 -10 -16 0 -8 5 -12 10 -9 6 4 10 -12 10 -39 0
-25 -4 -46 -10 -46 -5 0 -10 -5 -10 -11 0 -6 7 -8 16 -5 8 3 12 2 9 -4 -3 -6
-10 -10 -16 -10 -8 0 -277 -113 -406 -172 -50 -22 -67 -38 -40 -38 6 0 13 -10
14 -22 1 -13 5 -41 8 -63 4 -22 8 -50 8 -61 2 -17 7 -21 27 -17 24 4 24 4 5
-11 l-20 -15 20 -1 c17 0 17 -2 5 -10 -8 -5 -10 -10 -5 -10 12 0 353 108 375
119 11 6 15 2 16 -14 1 -18 -3 -21 -25 -18 -24 4 -25 3 -6 -8 19 -12 19 -12 0
-21 -15 -6 -13 -7 8 -3 l29 6 -4 -51 c-2 -29 1 -50 7 -50 15 -1 -77 -43 -270
-124 -117 -49 -197 -88 -198 -96 -1 -3 9 -42 22 -87 16 -56 29 -83 39 -83 12
0 12 -3 2 -15 -11 -13 -10 -14 6 -8 17 6 17 5 5 -10 -7 -9 -10 -17 -5 -17 12
0 355 110 375 120 13 7 17 4 17 -16 0 -20 -4 -23 -21 -18 -18 6 -17 3 6 -20
15 -15 24 -33 21 -41 -4 -8 -2 -15 4 -15 7 0 6 -8 -1 -23 -8 -17 -48 -39 -146
-82 -400 -171 -371 -157 -341 -165 16 -3 26 -14 28 -28 2 -12 8 -22 13 -22 6
0 7 -4 4 -10 -3 -5 4 -32 16 -59 11 -27 18 -55 14 -60 -4 -7 1 -8 12 -4 15 6
16 4 5 -9 -14 -18 -20 -19 241 66 76 26 141 46 143 46 3 0 0 -9 -6 -20 -7 -13
-7 -20 -1 -20 6 0 10 -12 10 -27 1 -50 5 -73 14 -73 15 0 -18 -27 -43 -35 -31
-9 -358 -148 -420 -178 -31 -15 -39 -23 -27 -25 20 -4 23 -18 5 -26 -7 -3 -2
-3 12 0 24 5 25 3 24 -38 0 -24 8 -60 18 -80 10 -21 18 -44 18 -53 0 -11 6
-15 18 -11 9 3 69 22 132 41 63 20 124 40 135 45 35 16 187 62 191 57 3 -2
-15 -10 -39 -16 l-44 -13 5 -51 c2 -29 9 -57 14 -64 6 -7 4 -13 -4 -17 -11 -5
-11 -7 0 -12 10 -5 10 -9 1 -20 -6 -8 -17 -14 -23 -14 -17 0 -395 -161 -441
-188 l-40 -23 35 6 c33 7 34 6 15 -9 -15 -12 -16 -15 -5 -16 11 0 15 -11 14
-42 0 -26 8 -61 22 -89 13 -26 20 -49 17 -53 -10 -10 -6 -9 232 69 126 42 233
74 239 72 5 -2 -10 -9 -35 -16 l-45 -12 6 -54 c5 -44 3 -52 -10 -48 -8 2 -5
-2 8 -9 21 -13 20 -15 -35 -40 -32 -14 -107 -47 -168 -72 -60 -26 -143 -61
-183 -78 -40 -17 -69 -34 -63 -37 6 -4 13 -27 17 -51 8 -51 30 -99 53 -117 14
-11 14 -12 -4 -13 -19 -1 -19 -1 -2 -14 14 -11 15 -15 5 -19 -7 -2 1 -2 17 0
17 2 62 15 100 27 211 71 266 87 282 83 13 -3 11 -5 -6 -6 -23 -1 -23 -2 -7
-20 12 -13 14 -21 6 -26 -7 -4 -10 -200 -10 -657 1 -603 2 -649 17 -636 13 10
15 10 9 0 -14 -23 -25 -73 -15 -67 5 4 9 13 9 21 0 8 4 13 8 10 4 -2 14 10 21
27 7 18 22 50 32 72 19 42 56 148 64 181 2 11 11 44 19 74 9 30 23 105 33 165
15 101 17 298 17 2375 1 2394 2 2330 -45 2542 -20 94 -35 141 -81 262 -28 72
-32 78 -44 61 -16 -22 -18 -12 -4 16 8 14 7 24 -2 38 -13 19 -14 18 -27 -10z
m15 -25 c-4 -9 -9 -15 -11 -12 -3 3 -3 13 1 22 4 9 9 15 11 12 3 -3 3 -13 -1
-22z m21 -1560 c-3 -3 -12 -4 -19 -1 -8 3 -5 6 6 6 11 1 17 -2 13 -5z m0 -970
c-3 -3 -12 -4 -19 -1 -8 3 -5 6 6 6 11 1 17 -2 13 -5z m0 -470 c-3 -3 -12 -4
-19 -1 -8 3 -5 6 6 6 11 1 17 -2 13 -5z m-30 -2676 c-3 -8 -6 -5 -6 6 -1 11 2
17 5 13 3 -3 4 -12 1 -19z"/>
<path d="M11073 17408 c0 -105 1 -109 15 -82 19 37 20 131 1 166 -14 24 -15
19 -16 -84z"/>
<path d="M6983 17375 c-168 -78 -215 -299 -92 -439 58 -65 107 -88 199 -92
132 -7 224 44 275 152 67 142 10 312 -128 378 -71 34 -183 34 -254 1z"/>
<path d="M11235 17390 c13 -6 15 -9 5 -9 -13 -1 -13 -3 -1 -10 8 -5 16 -17 17
-26 3 -18 50 -157 65 -190 20 -45 46 -131 42 -142 -9 -25 20 -23 49 3 42 40
68 100 68 158 0 102 -68 180 -187 210 -66 17 -90 20 -58 6z m150 -380 c3 -5 1
-10 -4 -10 -6 0 -11 5 -11 10 0 6 2 10 4 10 3 0 8 -4 11 -10z"/>
<path d="M5920 15471 c-58 -14 -87 -28 -130 -67 -60 -54 -82 -105 -88 -196 -4
-69 -2 -84 22 -132 89 -182 321 -223 462 -81 136 136 102 364 -67 450 -51 26
-145 38 -199 26z"/>
<path d="M970 14060 c8 -5 20 -10 25 -10 6 0 3 5 -5 10 -8 5 -19 10 -25 10 -5
0 -3 -5 5 -10z"/>
<path d="M881 13884 c0 -11 3 -14 6 -6 3 7 2 16 -1 19 -3 4 -6 -2 -5 -13z"/>
<path d="M901 13884 c0 -11 3 -14 6 -6 3 7 2 16 -1 19 -3 4 -6 -2 -5 -13z"/>
<path d="M970 13580 c0 -13 11 -13 30 0 12 8 11 10 -7 10 -13 0 -23 -4 -23
-10z"/>
<path d="M963 13533 c0 -40 10 -42 26 -7 10 22 9 26 -3 21 -8 -3 -16 -1 -19 6
-2 7 -4 -3 -4 -20z"/>
<path d="M7294 13524 c-54 -19 -118 -74 -150 -131 -56 -94 -41 -237 34 -323
78 -92 234 -121 347 -65 106 51 163 155 153 278 -6 75 -26 117 -81 175 -72 74
-200 102 -303 66z"/>
<path d="M960 13371 c0 -5 5 -13 10 -16 6 -3 10 -2 10 4 0 5 -4 13 -10 16 -5
3 -10 2 -10 -4z"/>
<path d="M12770 13300 c8 -5 20 -10 25 -10 6 0 3 5 -5 10 -8 5 -19 10 -25 10
-5 0 -3 -5 5 -10z"/>
<path d="M11890 12748 c0 -9 5 -18 10 -20 6 -2 17 -32 24 -68 12 -53 15 -58
15 -29 1 42 -16 98 -35 119 -12 12 -14 12 -14 -2z"/>
<path d="M12088 12607 c-41 -16 -118 -73 -118 -89 0 -6 6 -8 14 -5 9 4 12 0 9
-12 -2 -9 7 -48 22 -86 14 -39 35 -99 46 -135 12 -36 25 -69 30 -74 5 -6 9
-19 9 -29 0 -18 5 -19 48 -13 73 9 151 54 187 106 68 102 20 266 -97 326 -41
21 -108 26 -150 11z"/>
<path d="M11954 12146 c-1 -83 1 -105 8 -86 6 14 15 35 21 47 12 26 3 107 -15
132 -11 15 -13 -1 -14 -93z"/>
<path d="M12120 12120 c8 -5 12 -10 8 -10 -4 0 6 -30 21 -67 15 -38 48 -123
72 -190 41 -118 44 -122 64 -109 11 7 34 35 50 61 25 41 30 58 29 109 0 34 -6
72 -13 86 -25 47 -75 90 -128 110 -56 21 -131 28 -103 10z"/>
<path d="M937 11949 c4 -13 8 -18 11 -10 2 7 -1 18 -6 23 -8 8 -9 4 -5 -13z"/>
<path d="M951 11904 c0 -11 3 -14 6 -6 3 7 2 16 -1 19 -3 4 -6 -2 -5 -13z"/>
<path d="M12766 11864 c-10 -37 -4 -38 16 -3 13 23 14 29 4 29 -8 0 -17 -12
-20 -26z"/>
<path d="M940 11871 c0 -6 4 -13 10 -16 6 -3 7 1 4 9 -7 18 -14 21 -14 7z"/>
<path d="M11138 9678 c-447 -30 -898 -263 -1191 -616 -189 -228 -307 -472
-374 -777 l-27 -120 -3 -789 c-4 -757 -3 -788 14 -781 10 4 176 67 370 141
194 73 360 137 370 142 10 5 31 12 47 16 26 6 28 5 17 -8 -8 -9 -24 -16 -37
-16 -25 0 -33 -15 -11 -23 6 -3 -6 -3 -28 0 -38 4 -39 4 -15 -9 19 -10 25 -22
25 -46 0 -36 18 -48 23 -14 6 38 32 27 32 -14 0 -47 -19 -65 -62 -59 l-33 5
30 -10 c32 -11 114 4 126 23 4 5 12 6 19 2 14 -9 -158 -77 -177 -70 -7 2 -12
0 -10 -6 1 -6 -41 -25 -93 -44 -127 -44 -231 -83 -255 -95 -11 -5 -95 -37
-187 -71 l-168 -62 0 -123 c0 -68 2 -124 5 -124 4 0 93 33 375 140 194 74 199
76 260 100 30 12 74 28 98 35 l42 14 0 -49 c0 -28 -4 -50 -10 -50 -5 0 -10
-18 -10 -40 0 -22 5 -40 10 -40 6 0 10 18 10 40 0 30 4 40 16 40 13 0 15 -9
12 -45 -2 -25 0 -45 4 -45 5 0 8 4 8 9 0 5 10 7 22 3 19 -5 15 -8 -25 -21 -25
-9 -220 -81 -432 -161 l-385 -145 0 -142 0 -143 28 11 c15 6 128 49 252 95
124 46 234 89 245 94 11 5 52 20 91 34 40 13 87 31 106 40 18 9 48 20 65 25
26 7 31 7 26 -5 -3 -8 -16 -14 -28 -14 -13 0 -27 -4 -30 -10 -3 -5 -17 -10
-29 -10 -31 0 -53 -25 -30 -34 23 -9 31 -7 14 4 -19 12 -13 16 35 23 25 4 35
3 26 -2 -12 -8 -12 -12 2 -25 8 -9 21 -16 28 -16 8 0 10 -15 7 -51 -5 -48 -4
-50 16 -45 12 3 27 6 34 6 6 0 12 7 12 15 0 13 3 13 14 3 11 -10 -17 -24 -158
-76 -94 -34 -191 -71 -216 -81 -48 -20 -150 -59 -372 -142 l-138 -51 0 -134 0
-134 28 11 c63 25 275 105 372 141 58 21 119 45 137 53 17 8 38 15 46 15 9 0
18 4 21 9 3 4 19 11 34 14 16 3 53 17 83 30 30 13 67 27 82 31 24 6 27 5 15
-8 -7 -7 -16 -12 -19 -10 -3 1 -18 -4 -33 -12 -16 -7 -36 -14 -45 -14 -9 0
-27 -9 -40 -19 l-23 -18 31 0 c19 0 27 3 19 8 -17 11 -10 15 35 23 23 4 37 3
37 -4 0 -5 -4 -10 -10 -10 -5 0 -9 -3 -8 -7 0 -5 -2 -16 -6 -25 -10 -22 0 -52
14 -43 5 3 10 15 10 26 0 11 7 19 16 19 14 0 16 -9 12 -50 -3 -27 -1 -50 4
-50 5 0 6 5 2 11 -4 8 3 9 26 4 22 -5 30 -4 26 3 -10 16 7 22 21 7 10 -10 7
-14 -15 -20 -15 -3 -73 -24 -129 -46 -57 -22 -108 -37 -114 -33 -8 4 -9 3 -5
-4 4 -7 2 -12 -4 -12 -6 0 -52 -16 -103 -35 -98 -38 -222 -86 -404 -155 l-113
-43 0 -123 c0 -68 2 -124 4 -124 5 0 210 76 321 120 55 21 132 51 170 65 127
48 180 68 210 80 47 20 83 28 65 16 -10 -7 -11 -11 -2 -11 7 0 12 -15 12 -40
0 -22 -4 -40 -9 -40 -5 0 -11 -18 -13 -40 -2 -28 0 -40 9 -40 8 0 13 14 13 40
0 29 4 40 15 40 19 0 21 -76 3 -84 -7 -3 5 -3 27 -1 22 2 31 2 20 -1 -11 -3
-33 -12 -50 -20 -16 -7 -77 -31 -135 -52 -58 -21 -230 -86 -382 -143 l-278
-104 0 -127 0 -126 103 40 c56 22 136 52 177 68 41 15 143 54 225 85 83 31
184 70 225 85 41 15 87 33 103 39 17 6 27 7 27 1 0 -6 -7 -10 -15 -10 -8 0
-34 -9 -57 -21 -42 -20 -43 -21 -40 -65 3 -29 9 -44 18 -44 8 0 14 -7 14 -15
0 -8 4 -15 9 -15 4 0 8 -13 7 -29 -1 -32 27 -20 -586 -251 l-205 -77 -3 -131
c-1 -74 1 -132 6 -132 12 0 50 14 247 90 334 129 557 211 562 207 2 -2 -14
-12 -34 -21 -37 -16 -38 -18 -35 -61 3 -35 8 -45 22 -45 14 0 17 -5 12 -22 -5
-21 -4 -21 19 -5 13 9 30 17 39 17 11 -1 10 -4 -5 -12 -26 -15 -45 -40 -38
-52 4 -5 11 -2 17 6 6 8 25 17 41 20 17 3 39 9 49 13 13 6 17 5 12 -3 -4 -6
-22 -14 -41 -18 -19 -3 -35 -10 -35 -14 0 -4 -19 -13 -42 -19 -24 -7 -81 -28
-128 -46 -160 -62 -415 -158 -535 -202 -66 -25 -123 -47 -127 -51 -6 -7 17
-210 25 -218 2 -2 75 24 163 57 249 96 496 189 529 200 17 6 39 15 50 20 66
29 137 51 130 38 -4 -5 -14 -9 -23 -9 -10 0 -27 -7 -38 -15 -12 -8 -24 -11
-28 -8 -3 3 -6 1 -6 -6 0 -7 -6 -11 -13 -8 -6 2 -18 -2 -26 -10 -12 -13 -11
-14 6 -9 15 5 25 0 37 -19 11 -17 25 -25 46 -25 17 0 30 -4 30 -10 0 -5 -15
-10 -34 -10 -29 0 -33 -3 -29 -20 6 -23 8 -24 33 -10 24 13 37 -5 19 -26 -8
-10 -22 -13 -43 -9 -28 4 -28 4 -8 -5 13 -5 36 -8 50 -5 15 3 20 2 12 -1 -8
-4 -33 -14 -55 -24 -22 -10 -199 -77 -392 -150 -194 -73 -353 -138 -353 -144
0 -19 57 -160 96 -237 172 -343 466 -629 814 -793 511 -240 1117 -215 1600 66
499 290 814 779 869 1352 14 144 15 4411 1 4579 -46 549 -316 1013 -770 1319
-322 217 -691 313 -1102 286z m-173 -353 c56 -30 108 -55 115 -55 7 0 62 25
121 55 59 30 109 55 112 55 2 0 -6 -57 -19 -127 l-23 -128 96 -92 c63 -60 91
-94 82 -97 -14 -5 -221 -36 -240 -36 -6 0 -35 -52 -65 -115 -29 -63 -57 -115
-62 -115 -4 0 -33 52 -65 115 -31 63 -61 115 -67 115 -16 0 -224 31 -237 35
-6 2 31 46 83 97 l94 93 -23 128 c-13 70 -19 127 -14 127 5 0 55 -25 112 -55z
m1054 -566 l84 -43 120 62 c119 61 119 62 114 34 -3 -15 -13 -73 -23 -130
l-18 -103 94 -94 c63 -63 89 -96 79 -99 -8 -2 -65 -12 -128 -20 -63 -9 -116
-17 -117 -19 -1 -1 -27 -53 -58 -114 -31 -62 -58 -113 -61 -113 -3 0 -30 51
-61 113 -31 61 -57 113 -58 114 -1 2 -54 10 -117 19 -63 8 -120 18 -128 20
-10 3 16 36 78 98 l93 94 -21 118 c-27 155 -28 150 12 126 17 -11 70 -39 116
-63z m-1935 -40 l116 -61 115 61 115 60 0 -27 c-1 -15 -9 -72 -19 -127 l-19
-100 95 -96 c110 -111 115 -99 -52 -120 -49 -6 -97 -15 -105 -19 -8 -5 -40
-58 -70 -119 -30 -61 -57 -111 -60 -111 -3 0 -30 50 -60 111 -34 69 -63 114
-75 119 -11 4 -60 13 -110 19 -156 21 -151 9 -45 116 l94 94 -18 113 c-9 62
-19 121 -22 131 -3 9 -3 17 -1 17 3 0 57 -27 121 -61z m916 -366 l107 -57 112
58 c62 32 115 55 118 52 3 -3 -4 -61 -16 -128 l-22 -123 91 -89 c57 -55 87
-91 81 -96 -7 -4 -55 -12 -108 -19 -53 -7 -107 -17 -120 -22 -17 -6 -38 -39
-75 -119 -28 -61 -55 -109 -59 -108 -5 2 -33 53 -63 115 -61 124 -46 113 -191
133 -144 19 -141 9 -35 115 l93 93 -6 44 c-4 24 -13 80 -21 126 -8 50 -9 82
-3 82 5 0 58 -26 117 -57z m-912 -570 l112 -58 111 58 c61 32 113 56 117 52 3
-3 -4 -61 -16 -128 l-21 -122 96 -92 c59 -58 90 -95 82 -97 -8 -3 -67 -12
-132 -22 l-119 -17 -56 -113 c-31 -63 -60 -113 -64 -112 -4 2 -32 53 -62 114
-61 126 -33 109 -223 135 -51 7 -93 16 -93 19 0 4 42 47 94 96 l93 90 -18 104
c-10 58 -21 115 -24 128 -3 12 -2 22 2 22 5 1 59 -25 121 -57z m419 -1039 c-3
-3 -12 -4 -19 -1 -8 3 -5 6 6 6 11 1 17 -2 13 -5z m-60 -290 c-3 -3 -12 -4
-19 -1 -8 3 -5 6 6 6 11 1 17 -2 13 -5z m-7 -194 c-20 -13 -43 -13 -35 0 3 6
16 10 28 10 18 0 19 -2 7 -10z m-30 -310 c-8 -5 -19 -10 -25 -10 -5 0 -3 5 5
10 8 5 20 10 25 10 6 0 3 -5 -5 -10z m-5 -480 c-3 -5 -12 -10 -18 -10 -7 0 -6
4 3 10 19 12 23 12 15 0z m-38 -506 c-3 -3 -12 -4 -19 -1 -8 3 -5 6 6 6 11 1
17 -2 13 -5z m123 -93 c0 -5 -9 -7 -20 -4 -11 3 -20 7 -20 9 0 2 9 4 20 4 11
0 20 -4 20 -9z m-59 -25 c-10 -12 -8 -15 11 -19 19 -4 20 -4 3 -5 -11 -1 -27
3 -35 8 -13 9 -13 11 0 20 22 14 34 12 21 -4z m-24 -468 c0 -13 -1 -18 -4 -11
-3 8 -15 10 -34 6 -17 -3 -29 -1 -29 5 0 6 15 13 33 15 17 2 32 5 32 5 1 1 1
-8 2 -20z m50 6 c-3 -3 -12 -4 -19 -1 -8 3 -5 6 6 6 11 1 17 -2 13 -5z m-71
-49 c-35 -19 -37 -19 -30 0 4 8 18 15 33 15 l26 0 -29 -15z m14 -275 c0 -5 -8
-10 -17 -10 -15 0 -16 2 -3 10 19 12 20 12 20 0z m127 -156 c-3 -3 -12 -4 -19
-1 -8 3 -5 6 6 6 11 1 17 -2 13 -5z m1725 -74 l110 -60 116 60 c64 32 118 57
120 56 1 -2 -7 -60 -19 -130 l-21 -127 93 -88 c52 -49 92 -91 89 -94 -3 -3
-55 -13 -115 -22 -61 -8 -117 -18 -125 -20 -9 -3 -42 -58 -74 -122 -32 -65
-61 -113 -63 -108 -3 6 -30 60 -61 120 l-57 110 -125 18 c-69 11 -127 21 -130
23 -2 3 38 44 90 93 l94 87 -18 109 c-10 61 -20 120 -23 133 -3 12 -2 22 2 22
4 0 56 -27 117 -60z m-1832 -260 c0 -5 -2 -10 -4 -10 -3 0 -8 5 -11 10 -3 6
-1 10 4 10 6 0 11 -4 11 -10z m107 -106 c-3 -3 -12 -4 -19 -1 -8 3 -5 6 6 6
11 1 17 -2 13 -5z m-50 -30 c-3 -3 -12 -4 -19 -1 -8 3 -5 6 6 6 11 1 17 -2 13
-5z m-16 -379 c56 -30 107 -56 113 -57 6 -1 62 24 124 55 92 47 112 54 112 40
0 -10 -9 -67 -19 -128 l-19 -110 95 -96 95 -96 -54 -7 c-29 -4 -88 -11 -131
-17 l-78 -11 -57 -114 c-31 -63 -60 -114 -63 -114 -4 0 -32 51 -63 113 l-57
114 -127 18 c-70 10 -129 19 -131 21 -2 2 39 45 92 96 l96 93 -23 128 c-13 70
-20 127 -15 127 4 0 53 -25 110 -55z m1153 -5 l110 -59 114 61 c62 33 115 58
117 56 3 -2 -5 -61 -17 -131 l-22 -127 92 -86 c51 -47 92 -90 92 -94 0 -4 -58
-15 -128 -25 l-129 -17 -60 -122 -61 -121 -56 117 c-31 64 -59 119 -64 122 -4
2 -61 12 -127 21 -66 10 -122 19 -124 22 -3 2 37 45 88 97 l92 92 -20 121
c-24 137 -23 133 -13 133 4 -1 56 -27 116 -60z"/>
<path d="M6580 9639 c-310 -40 -614 -168 -857 -363 -377 -300 -607 -724 -653
-1202 -14 -154 -14 -4500 1 -4632 46 -412 221 -778 508 -1060 249 -245 562
-409 908 -474 98 -18 152 -22 318 -22 215 0 305 12 460 61 63 20 76 27 60 34
-13 5 -15 8 -5 8 13 1 15 25 13 161 -2 87 -4 165 -5 171 -6 26 23 18 56 -15
19 -20 41 -36 49 -36 7 0 30 18 50 40 39 44 61 50 77 21 13 -25 13 -61 0 -61
-5 0 -10 -11 -10 -25 0 -14 6 -25 13 -25 8 0 7 -4 -3 -10 -10 -6 -11 -10 -2
-10 6 0 12 -5 12 -11 0 -5 -6 -7 -12 -3 -9 5 -10 4 -3 -4 6 -6 8 -33 7 -60 -3
-39 -9 -52 -25 -61 -21 -11 -21 -11 3 -5 42 10 224 114 307 176 190 142 388
373 493 578 72 141 94 196 131 323 69 237 64 28 64 2622 0 2233 -1 2345 -19
2445 -77 437 -302 813 -647 1082 -99 77 -236 161 -250 153 -5 -4 -9 -2 -9 4 0
6 -14 18 -30 26 -28 14 -33 14 -52 0 -25 -16 -17 -21 11 -6 10 6 23 6 32 0 10
-6 11 -9 1 -9 -8 0 -10 -5 -6 -12 6 -10 5 -10 -7 -1 -13 10 -14 7 -11 -24 3
-24 7 -31 13 -22 6 9 9 -2 9 -31 0 -33 -3 -41 -10 -30 -8 11 -10 7 -8 -17 1
-18 5 -33 9 -33 3 0 7 -189 7 -420 0 -260 -3 -418 -9 -415 -5 4 -9 -5 -9 -19
0 -14 5 -26 10 -26 6 0 10 -11 10 -25 0 -14 -5 -25 -11 -25 -7 0 -10 -14 -7
-37 3 -21 -2 -54 -10 -73 -10 -24 -14 -64 -11 -130 5 -167 4 -212 -3 -223 -5
-8 -8 -5 -8 7 0 11 -3 17 -6 13 -9 -9 6 -48 17 -42 5 4 9 -4 9 -17 0 -13 13
-39 30 -58 16 -19 29 -42 29 -50 0 -10 -3 -8 -8 5 -7 17 -8 17 -15 -8 -4 -19
-2 -33 9 -43 25 -25 17 -29 -9 -5 -19 18 -23 28 -16 45 9 25 3 40 -22 49 -9 3
-26 24 -37 45 -20 39 -135 152 -155 152 -6 0 -4 5 4 10 13 8 12 10 -2 10 -17
0 -18 43 -18 765 0 722 1 765 18 766 13 0 11 3 -6 10 -13 5 -21 13 -17 19 4 6
-1 7 -11 3 -13 -5 -15 -3 -9 7 6 10 4 12 -8 7 -10 -3 -17 -3 -17 2 0 10 -170
48 -270 61 -90 11 -339 11 -430 -1z m-564 -631 c43 -46 66 -87 58 -100 -4 -6
-3 -8 3 -5 6 4 14 0 17 -9 4 -10 2 -13 -7 -9 -6 4 -4 0 5 -8 9 -7 17 -22 18
-33 7 -205 5 -242 -9 -231 -12 10 -13 7 -7 -18 9 -34 9 -34 7 -58 0 -10 -5
-15 -11 -12 -5 3 -10 -1 -10 -10 0 -20 -41 -84 -73 -113 l-25 -23 -46 48 c-26
26 -64 81 -84 122 -77 155 -50 291 88 450 19 22 37 40 41 40 3 1 19 -14 35
-31z m-581 -348 c-4 -6 13 -10 44 -10 55 0 84 -8 75 -21 -3 -5 3 -6 12 -2 10
4 15 2 11 -4 -3 -5 -1 -10 6 -11 29 -2 89 -21 102 -32 8 -6 20 -8 27 -4 7 4
10 3 5 -1 -8 -10 21 -45 37 -45 7 0 25 -26 41 -57 17 -32 33 -60 36 -63 3 -3
12 -26 21 -52 l15 -47 -63 -17 c-89 -24 -210 -16 -285 18 -55 25 -110 75 -154
140 -30 44 -78 179 -67 190 4 4 35 12 68 17 32 5 63 9 67 10 5 0 5 -3 2 -9z
m58 3 c-7 -2 -19 -2 -25 0 -7 3 -2 5 12 5 14 0 19 -2 13 -5z m1126 -4 c28 -6
53 -15 57 -20 9 -16 -75 -179 -92 -179 -11 0 -14 -5 -10 -17 4 -10 4 -14 0
-10 -4 4 -13 -1 -19 -10 -11 -15 -15 -15 -29 -4 -9 8 -19 12 -21 9 -9 -8 6
-38 19 -39 21 -1 -29 -18 -56 -18 -16 -1 -28 -5 -28 -11 0 -5 -8 -10 -17 -10
-10 0 -27 -7 -37 -15 -20 -15 -20 -15 0 -16 14 0 11 -4 -12 -14 -36 -16 -128
-21 -199 -10 -70 11 -76 17 -61 68 42 137 132 249 228 285 61 24 194 29 277
11z m-974 -39 c3 -6 -1 -7 -9 -4 -18 7 -21 14 -7 14 6 0 13 -4 16 -10z m379
-343 c7 -7 13 -29 14 -49 3 -70 -75 -100 -120 -46 -32 37 -20 91 26 116 21 11
58 1 80 -21z m422 -102 c62 -27 133 -95 165 -156 25 -48 71 -170 66 -176 -2
-1 -27 -7 -57 -13 -66 -12 -194 -13 -165 0 11 5 14 9 6 9 -8 1 -19 8 -25 17
-7 9 -30 16 -58 18 -53 3 -88 23 -66 38 9 6 5 7 -10 3 -31 -9 -122 52 -122 82
0 3 -6 14 -13 22 -28 33 -69 143 -58 154 5 5 39 16 73 23 84 17 198 8 264 -21z
m-650 13 c75 -14 76 -16 39 -115 -44 -115 -124 -203 -225 -244 -71 -29 -329
-9 -317 24 2 7 12 36 22 64 11 29 22 48 26 42 3 -6 9 5 13 25 4 20 11 36 15
36 5 0 11 10 14 21 4 15 11 20 21 16 9 -4 17 -2 17 3 1 6 2 16 3 23 1 6 9 11
19 9 9 -2 17 1 17 5 0 5 13 16 28 25 25 15 31 15 49 3 20 -14 22 -13 31 15 8
21 7 30 -1 33 -14 5 30 -2 58 -9 19 -5 19 -4 2 9 -14 11 -15 16 -5 20 24 10
110 7 174 -5z m241 -135 c62 -68 116 -181 121 -255 6 -84 -26 -178 -91 -263
-72 -94 -81 -98 -117 -55 -55 65 -92 129 -94 165 -2 19 1 35 5 35 16 0 11 152
-5 164 -13 10 -13 18 -1 64 8 29 24 67 37 85 43 62 81 107 91 107 6 0 30 -21
54 -47z m2033 -84 c-35 -17 -67 -33 -70 -37 -3 -4 -18 -16 -35 -26 -16 -10
-43 -30 -59 -45 l-28 -26 16 32 c31 61 148 132 216 132 18 0 7 -9 -40 -30z
m-2243 -246 c-3 -10 -5 -4 -5 12 0 17 2 24 5 18 2 -7 2 -21 0 -30z m1293 8 c0
-7 13 -14 50 -25 16 -5 30 -19 25 -26 -3 -4 4 -6 15 -3 11 3 20 1 20 -5 0 -5
19 -19 43 -31 37 -19 39 -21 16 -21 -58 0 -149 53 -190 111 l-22 31 21 -11
c12 -7 22 -16 22 -20z m432 -126 c11 -15 9 -75 -2 -75 -5 0 -10 3 -10 8 0 4
-26 6 -57 5 -82 -3 -174 8 -148 18 20 7 20 8 0 8 -18 1 -18 2 -2 19 13 12 40
19 95 22 106 8 116 7 124 -5z m55 -45 c1 -40 -10 -53 -21 -24 -10 27 -7 64 7
64 7 0 13 -16 14 -40z m528 -54 c50 -23 127 -92 147 -131 10 -19 -5 -7 -78 64
-13 13 -27 21 -31 18 -3 -4 0 -7 7 -7 7 0 11 -3 8 -6 -6 -6 -49 15 -59 29 -3
5 -28 19 -55 32 -46 23 -47 24 -19 25 17 0 53 -11 80 -24z m-535 -20 c0 -2 -7
-6 -15 -10 -8 -3 -15 -1 -15 4 0 6 7 10 15 10 8 0 15 -2 15 -4z m-15 -84 c-8
-9 -25 20 -18 31 3 5 10 2 15 -7 6 -10 7 -20 3 -24z m-5 -22 c0 -3 -9 -13 -20
-23 -12 -10 -18 -22 -15 -28 4 -5 2 -15 -3 -22 -21 -26 -51 -146 -54 -214 -2
-39 -1 -70 3 -67 9 5 34 -85 31 -111 -2 -16 0 -17 8 -5 9 14 10 13 10 -15 0
-3 9 -14 20 -25 24 -24 28 -49 5 -30 -8 7 -15 9 -16 4 -4 -28 5 -60 19 -71 16
-12 16 -14 0 -27 -20 -14 -24 -36 -8 -36 6 0 10 -137 10 -390 0 -228 -4 -390
-9 -390 -5 0 -8 -10 -6 -22 3 -28 26 -78 35 -78 3 0 21 16 40 35 19 19 40 35
47 35 19 0 71 -59 85 -97 7 -18 16 -33 20 -33 4 0 8 -10 8 -23 0 -13 5 -28 11
-34 13 -13 23 -73 12 -73 -4 0 -8 -51 -8 -112 0 -84 -5 -123 -17 -151 -26 -58
-90 -136 -112 -137 -11 0 -38 20 -62 45 -23 25 -43 45 -46 45 -4 0 -2 -62 7
-167 1 -24 -1 -43 -6 -43 -5 0 -9 7 -9 16 0 8 -4 12 -10 9 -5 -3 -9 -23 -9
-43 1 -20 3 -29 6 -19 2 9 10 17 16 17 7 0 23 16 36 35 19 28 30 35 55 35 50
0 76 -24 76 -71 0 -32 -7 -47 -30 -70 -36 -36 -62 -33 -101 13 l-25 30 -2 -67
c-1 -38 -7 -74 -13 -81 -6 -7 -12 -39 -14 -71 -1 -32 -10 -78 -20 -103 -13
-35 -16 -65 -13 -135 3 -50 10 -99 16 -110 6 -11 16 -34 23 -51 7 -17 21 -37
32 -43 17 -11 18 -10 12 11 -4 13 -13 30 -20 38 -7 8 -16 33 -20 55 -4 22 -11
46 -17 53 -7 8 -7 17 2 27 11 13 15 13 22 3 6 -8 8 4 6 32 -1 25 -9 50 -16 56
-13 9 -12 15 1 45 22 48 30 96 18 104 -19 11 -12 35 11 35 12 0 18 3 14 7 -9
10 65 83 84 83 38 0 137 -139 164 -230 20 -67 20 -132 1 -198 -16 -51 -96
-182 -133 -215 -19 -17 -22 -17 -52 -2 -17 9 -36 27 -42 39 -11 25 -30 28 -49
9 -6 -6 -12 -43 -13 -83 -1 -40 1 -64 6 -53 4 10 6 -70 5 -177 -1 -108 -6
-198 -11 -202 -5 -3 -9 -21 -8 -39 l1 -33 -54 57 c-30 31 -58 57 -62 57 -4 0
-26 -19 -50 -42 -31 -31 -44 -38 -48 -27 -3 8 -4 198 -3 422 2 227 -1 407 -6
407 -5 0 -4 6 3 13 9 11 -9 13 -97 9 -101 -4 -199 7 -230 27 -11 7 -8 22 14
77 28 72 85 156 92 135 5 -14 29 -15 37 -1 3 6 -1 7 -9 4 -11 -4 -16 0 -16 13
0 22 73 80 78 63 5 -14 42 -13 42 1 0 16 41 47 72 54 29 7 48 25 27 25 -8 0
-8 4 -1 13 18 21 -8 42 -82 67 -116 38 -206 143 -250 289 -8 29 -13 57 -11 61
11 18 132 28 176 15 19 -5 21 -4 9 4 -13 9 -13 11 3 11 9 0 17 -6 17 -14 0 -9
7 -12 21 -9 12 4 25 0 29 -7 5 -8 19 -15 32 -17 37 -5 50 -12 43 -24 -4 -6 2
-13 14 -16 12 -3 21 -12 21 -20 0 -10 4 -11 19 -3 33 17 42 12 36 -19 -5 -27
-3 -30 22 -28 21 2 31 -5 42 -28 14 -28 16 -28 19 -8 2 12 -5 30 -15 41 -10
10 -27 30 -39 44 -11 13 -42 39 -67 58 l-47 33 3 827 2 827 -39 -9 c-58 -13
-78 -4 -36 15 19 9 31 16 27 17 -5 0 24 17 65 38 40 20 84 46 97 57 56 46 81
73 81 88 0 10 9 14 25 13 14 0 25 -3 25 -6z m266 -234 c8 -55 -2 -127 -21
-152 -12 -17 -13 -2 -12 113 2 113 4 128 15 108 7 -13 15 -44 18 -69z m-2002
-107 c-3 -6 -8 -32 -9 -57 -2 -26 -7 -62 -11 -81 -4 -20 -3 -32 2 -29 5 4 9
-21 9 -55 l1 -60 -15 34 c-21 48 -20 174 1 222 9 20 20 37 23 37 3 0 3 -5 -1
-11z m571 -194 c-19 -8 -24 -14 -15 -17 8 -3 2 -3 -14 0 -16 2 -26 0 -23 -5 3
-5 -10 -15 -29 -22 -19 -7 -32 -16 -29 -21 3 -5 1 -11 -5 -15 -5 -3 -10 -1
-10 4 0 6 -4 11 -10 11 -5 0 -10 -7 -10 -15 0 -8 -8 -15 -19 -15 -10 0 -24 -7
-31 -15 -7 -8 -17 -15 -22 -15 -15 0 65 81 97 98 39 20 105 41 130 41 15 -1
13 -4 -10 -14z m-995 -250 c0 4 12 -4 27 -19 16 -17 33 -24 44 -21 11 4 19 0
23 -12 6 -18 48 -43 72 -43 7 0 15 -4 18 -8 10 -16 -47 -11 -87 7 -47 22 -127
87 -127 103 0 6 6 6 15 -2 8 -7 15 -9 15 -5z m227 -121 c-3 -3 -12 -4 -19 -1
-8 3 -5 6 6 6 11 1 17 -2 13 -5z m259 -53 c-1 -16 -4 -27 -8 -24 -11 6 -10 53
1 53 4 0 8 -13 7 -29z m539 -60 c41 -18 125 -95 125 -114 0 -6 -9 -1 -20 11
-12 12 -35 29 -53 37 -63 30 -80 42 -65 49 7 3 4 5 -7 3 -20 -2 -95 29 -95 40
0 9 72 -7 115 -26z m-714 -251 c-18 -18 -36 -28 -42 -24 -7 4 -9 3 -5 -4 10
-17 -22 -41 -80 -58 -78 -22 -88 -12 -20 20 33 16 68 36 79 47 11 10 23 17 26
15 3 -2 19 7 36 20 40 32 44 22 6 -16z m404 -57 c20 -69 16 -152 -9 -206 -10
-21 -20 -36 -21 -35 -2 2 1 26 6 53 11 58 13 202 4 228 -4 9 -5 17 -2 17 3 0
13 -26 22 -57z m2179 -535 l58 -11 -7 -33 c-6 -32 -55 -135 -77 -161 -6 -7
-14 -11 -18 -8 -15 9 -23 -17 -9 -26 9 -6 1 -7 -23 -4 -35 4 -53 -8 -26 -17 7
-3 9 -12 5 -22 -7 -18 -8 -18 -28 0 -19 17 -21 18 -30 1 -6 -9 -21 -17 -34
-17 -31 0 -33 -18 -3 -29 16 -6 18 -10 9 -16 -8 -4 -16 -2 -21 5 -10 16 -50 3
-50 -17 0 -12 -18 -14 -120 -11 -150 4 -153 6 -121 95 45 131 131 230 229 265
56 20 184 23 266 6z m-924 -72 c0 -3 -4 -8 -10 -11 -5 -3 -10 -1 -10 4 0 6 5
11 10 11 6 0 10 -2 10 -4z m671 -386 c75 -14 129 -43 182 -97 49 -49 110 -163
122 -224 7 -36 7 -36 -39 -48 -60 -15 -163 -15 -168 1 -3 7 -23 12 -45 12 -23
1 -39 4 -37 7 2 4 -6 9 -17 12 -12 3 -19 10 -16 14 3 5 2 15 -3 23 -8 13 -13
13 -31 2 -25 -16 -37 -9 -20 12 16 19 -4 32 -24 16 -14 -12 -35 -6 -35 10 0 5
8 11 18 13 13 4 11 5 -5 6 -13 0 -23 6 -23 11 0 6 -6 10 -13 10 -8 0 -22 9
-32 20 -10 11 -14 20 -9 20 5 0 4 4 -3 8 -13 8 -63 118 -63 138 0 15 90 36
186 43 12 0 45 -4 75 -9z m-2141 -432 c51 -63 73 -106 66 -124 -3 -7 -2 -16 3
-18 4 -3 13 -36 21 -74 10 -55 10 -76 0 -106 -6 -20 -9 -43 -6 -51 2 -7 0 -15
-5 -17 -5 -2 -12 -21 -15 -43 -4 -35 -19 -67 -46 -100 -5 -5 -19 -23 -33 -39
-30 -37 -47 -31 -104 39 -120 145 -134 309 -41 454 40 62 99 130 112 131 4 0
26 -23 48 -52z m100 -172 c0 -26 -6 -18 -14 19 -5 22 -4 26 4 15 5 -8 10 -24
10 -34z m17 -118 c-3 -8 -6 -5 -6 6 -1 11 2 17 5 13 3 -3 4 -12 1 -19z m471
-40 c28 -6 52 -16 52 -22 0 -43 -66 -176 -86 -176 -7 0 -16 -10 -20 -22 -3
-12 -13 -28 -21 -36 -11 -12 -16 -12 -30 0 -12 9 -15 9 -9 1 4 -8 2 -13 -6
-13 -8 0 -24 -8 -38 -17 -13 -9 -35 -18 -49 -19 -13 -2 -29 -10 -33 -19 -5 -8
-20 -15 -33 -15 -13 0 -28 -6 -32 -13 -12 -21 -43 -25 -114 -15 -98 13 -101
15 -94 51 12 57 76 179 118 224 92 100 216 128 395 91z m-1168 2 c0 -5 12 -10
28 -9 24 0 25 1 7 9 -19 8 -19 9 1 9 12 1 24 -6 28 -14 3 -8 13 -15 23 -15 16
0 16 -2 3 -11 -12 -9 -12 -10 3 -5 47 15 65 17 72 7 3 -6 10 -9 15 -6 4 3 10
-4 13 -15 4 -15 0 -20 -14 -20 -10 0 -19 -5 -19 -12 0 -6 3 -9 6 -5 4 3 13 0
21 -8 14 -14 24 -16 85 -18 22 -1 25 -4 17 -18 -13 -25 -11 -33 4 -20 17 13
57 -25 60 -57 0 -11 4 -19 8 -16 7 4 49 -96 49 -116 0 -20 -79 -35 -185 -35
-106 0 -112 1 -172 34 -42 23 -76 51 -107 91 -47 60 -111 202 -102 225 3 8 26
17 53 20 26 4 53 8 58 10 21 7 45 5 45 -5z m990 -330 c0 -5 -9 -10 -20 -10
-11 0 -20 5 -20 10 0 6 9 10 20 10 11 0 20 -4 20 -10z m-422 -44 c13 -21 8
-100 -8 -113 -23 -19 -75 -16 -94 6 -37 40 -14 115 38 123 28 5 55 -2 64 -16z
m428 -110 c92 -42 162 -128 204 -251 11 -32 20 -64 20 -70 0 -14 -39 -24 -117
-32 -57 -5 -173 30 -173 52 0 17 -53 35 -71 25 -7 -5 -20 -5 -30 0 -9 5 -20 6
-24 2 -4 -4 -2 4 5 17 6 13 7 21 2 17 -6 -3 -13 -2 -17 4 -3 5 -1 10 6 10 7 0
10 3 7 6 -4 3 -16 0 -28 -6 -16 -9 -20 -9 -15 -1 4 7 -10 28 -32 49 -25 25
-46 59 -61 102 -12 36 -22 68 -22 71 0 6 59 24 110 33 60 11 183 -4 236 -28z
m-608 8 c20 -6 22 -11 16 -43 -9 -52 -57 -151 -102 -207 -74 -93 -205 -136
-353 -114 -99 14 -109 18 -109 39 0 24 83 184 95 183 6 0 17 6 26 14 10 9 24
12 35 7 17 -6 17 -5 5 10 -12 15 -11 20 3 35 9 10 14 21 12 23 -2 2 9 5 25 6
16 1 27 -2 24 -7 -8 -13 9 -20 25 -9 13 8 13 10 0 20 -12 8 -11 9 7 4 12 -3
24 -1 28 5 3 5 15 10 25 10 10 0 23 6 27 14 4 7 15 16 23 19 16 7 152 0 188
-9z m-221 0 c-3 -3 -12 -4 -19 -1 -8 3 -5 6 6 6 11 1 17 -2 13 -5z m-40 -10
c-3 -3 -12 -4 -19 -1 -8 3 -5 6 6 6 11 1 17 -2 13 -5z m2118 -39 c1 -17 -4
-23 -17 -22 -19 1 -26 17 -8 17 6 0 10 10 10 22 0 29 15 13 15 -17z m-1701
-41 c19 -7 89 -98 120 -156 32 -61 50 -146 42 -199 -14 -89 -92 -227 -154
-273 l-25 -19 -38 44 c-21 24 -44 58 -51 74 -7 17 -18 36 -25 43 -7 7 -16 31
-19 53 -4 21 -10 36 -15 33 -5 -3 -6 2 -2 11 5 13 7 14 14 3 5 -7 9 24 9 77 1
50 3 101 4 115 2 14 4 33 4 43 1 9 9 17 17 17 8 0 14 3 14 8 -3 19 4 34 41 81
22 28 42 51 44 51 3 0 11 -3 20 -6z m1408 -217 c2 -59 0 -107 -3 -107 -11 0
-39 101 -39 139 0 21 8 60 18 87 20 57 20 58 24 -119z m-1045 -2 c-6 -16 -34
-17 -34 -1 0 8 9 14 19 13 10 -1 17 -6 15 -12z m1638 -25 c-11 -5 -29 -9 -41
-9 -11 -1 -29 -9 -40 -18 -11 -10 -41 -29 -67 -43 -26 -13 -47 -28 -47 -32 0
-5 -5 -8 -11 -8 -7 0 -18 -8 -25 -17 -7 -10 -15 -15 -19 -11 -13 13 101 115
146 131 47 17 141 23 104 7z m-2168 -32 c-3 -7 -5 -2 -5 12 0 14 2 19 5 13 2
-7 2 -19 0 -25z m0 -65 c-3 -10 -5 -2 -5 17 0 19 2 27 5 18 2 -10 2 -26 0 -35z
m1858 -65 c0 -28 -5 -43 -15 -46 -12 -4 -13 -2 -2 9 18 19 15 34 -4 18 -11 -9
-14 -22 -9 -45 6 -37 -3 -86 -15 -79 -12 7 1 -38 14 -50 6 -6 12 -15 12 -20 1
-6 4 -24 7 -40 5 -26 1 -34 -24 -50 -30 -21 -38 -37 -16 -32 7 1 12 -8 11 -23
-1 -13 5 -31 13 -38 9 -9 10 -18 4 -26 -11 -13 -3 -64 12 -73 6 -4 8 8 4 33
l-6 39 13 -35 c11 -30 11 -37 -3 -46 -12 -10 -18 -7 -28 13 -7 14 -14 37 -14
52 -1 17 -3 20 -6 9 -6 -25 -14 -22 -48 17 -16 19 -35 35 -42 35 -7 0 -32 -20
-56 -45 -25 -25 -47 -45 -50 -45 -3 0 -1 18 4 40 5 22 7 54 4 70 -5 27 -2 30
19 30 14 0 28 -4 31 -10 12 -20 75 -11 100 15 14 13 25 29 25 36 0 6 8 17 17
24 15 11 15 13 -4 19 -12 4 -24 18 -27 31 -8 31 -65 44 -110 25 -17 -6 -42
-14 -56 -16 -25 -4 -25 -4 -2 7 25 14 29 37 7 45 -8 4 -15 13 -15 21 0 8 5 11
11 7 7 -4 9 0 6 12 -3 11 -8 32 -12 48 l-6 28 41 -33 c77 -63 71 -62 117 -18
23 21 39 39 36 39 -4 0 3 10 14 23 11 12 26 32 32 45 6 12 13 22 14 22 1 0 2
-19 2 -42z m-652 -132 c-3 -4 5 -5 17 -1 17 5 21 4 15 -5 -5 -9 -4 -11 4 -6 7
5 20 -1 30 -13 10 -12 25 -21 32 -21 8 0 23 -8 34 -16 19 -15 18 -16 -20 -9
-71 11 -159 67 -186 117 -7 13 2 11 35 -10 24 -15 41 -31 39 -36z m437 -142
c0 -47 0 -47 -24 -38 -14 5 -14 36 0 82 8 27 24 -1 24 -44z m535 -44 c46 -21
94 -62 121 -105 l19 -30 -40 33 c-22 17 -45 32 -52 32 -7 0 -13 6 -13 14 0 8
-5 18 -12 22 -7 5 -8 3 -3 -6 6 -10 4 -12 -9 -7 -10 4 -22 7 -27 7 -6 0 -7 5
-4 10 3 6 1 10 -6 10 -19 0 -88 34 -89 43 0 11 68 -3 115 -23z m-694 -238
c-27 -51 -132 -111 -196 -111 l-30 -1 29 15 c15 8 32 15 37 15 13 0 122 66
144 88 24 23 30 21 16 -6z m406 -132 c6 -50 -13 -160 -28 -160 -5 0 -8 60 -8
137 1 131 1 136 16 103 8 -19 17 -55 20 -80z"/>
<path d="M6086 8817 c3 -10 9 -15 12 -12 3 3 0 11 -7 18 -10 9 -11 8 -5 -6z"/>
<path d="M6092 8740 c0 -14 2 -19 5 -12 2 6 2 18 0 25 -3 6 -5 1 -5 -13z"/>
<path d="M5601 8576 c12 -10 60 -16 54 -6 -3 5 -18 10 -32 10 -15 0 -24 -2
-22 -4z"/>
<path d="M5761 8500 c0 -8 4 -22 9 -30 12 -18 12 -2 0 25 -6 13 -9 15 -9 5z"/>
<path d="M7520 6764 c0 -8 5 -12 10 -9 6 3 10 10 10 16 0 5 -4 9 -10 9 -5 0
-10 -7 -10 -16z"/>
<path d="M7530 5834 c0 -3 5 -14 10 -25 13 -23 30 -25 30 -4 0 8 -7 15 -16 15
-8 0 -12 5 -9 10 3 6 1 10 -4 10 -6 0 -11 -3 -11 -6z"/>
<path d="M7373 5053 c9 -2 23 -2 30 0 6 3 -1 5 -18 5 -16 0 -22 -2 -12 -5z"/>
<path d="M7176 4972 c-2 -4 -1 -14 3 -21 6 -9 10 -7 14 8 5 20 -7 29 -17 13z"/>
<path d="M5980 4344 c0 -26 4 -32 15 -28 8 4 15 18 15 33 0 18 -5 28 -15 28
-10 0 -15 -11 -15 -33z"/>
<path d="M5368 3743 c-27 -7 -22 -23 7 -23 16 0 25 6 25 15 0 15 -2 16 -32 8z"/>
<path d="M5747 3346 c-4 -10 -7 -25 -6 -34 0 -11 4 -9 10 7 5 13 8 29 6 35 -2
5 -6 2 -10 -8z"/>
<path d="M15835 9641 l-50 -6 43 -8 c24 -4 73 -5 110 -3 l67 5 -55 -9 c-30 -5
-91 -7 -135 -6 -66 2 -75 1 -51 -8 l28 -11 -3 -634 c-3 -498 -1 -635 9 -639 6
-2 12 -11 12 -20 0 -15 -2 -15 -10 -2 -8 11 -9 8 -4 -12 3 -16 3 -36 -1 -45
-5 -10 -7 -358 -6 -773 2 -415 3 -759 3 -765 -1 -5 -4 -58 -7 -117 -5 -75 -3
-108 4 -108 6 0 11 -18 11 -40 0 -22 -3 -40 -7 -40 -8 0 -6 -4456 2 -4477 2
-7 15 -13 27 -14 22 -1 22 -1 -2 -9 -25 -8 -23 -8 142 -14 27 0 48 2 48 7 0 4
-30 8 -67 9 l-68 1 50 7 c28 4 42 8 33 8 -17 2 -18 192 -18 3837 0 2692 3
3835 11 3835 5 0 7 5 3 12 -5 8 5 9 37 5 29 -4 37 -3 24 3 l-20 9 20 1 20 1
-20 8 c-31 12 -124 18 -180 12z m82 -7 c-3 -3 -12 -4 -19 -1 -8 3 -5 6 6 6 11
1 17 -2 13 -5z m-100 -30 c-3 -3 -12 -4 -19 -1 -8 3 -5 6 6 6 11 1 17 -2 13
-5z"/>
<path d="M16068 9633 c17 -2 47 -2 65 0 17 2 3 4 -33 4 -36 0 -50 -2 -32 -4z"/>
<path d="M15708 9623 c7 -3 16 -2 19 1 4 3 -2 6 -13 5 -11 0 -14 -3 -6 -6z"/>
<path d="M16063 9613 c9 -2 25 -2 35 0 9 3 1 5 -18 5 -19 0 -27 -2 -17 -5z"/>
<path d="M1709 9503 c-1 -5 -1 -12 0 -16 1 -5 -3 -6 -8 -3 -5 3 -16 3 -25 0
-13 -5 -14 -9 -5 -20 10 -12 8 -13 -12 -6 -17 7 -28 6 -37 -5 -12 -12 -9 -13
14 -7 18 5 25 3 21 -3 -4 -6 -7 -535 -7 -1176 0 -914 -3 -1167 -13 -1171 -6
-3 2 -4 18 -1 l30 4 -30 -14 c-30 -14 -30 -14 -5 -15 14 0 35 -7 47 -15 14
-10 24 -12 28 -5 10 16 28 12 21 -6 -3 -8 -2 -12 4 -9 5 3 9 24 8 45 -1 34 -4
39 -22 36 -12 -2 -15 -1 -9 1 7 3 15 14 18 26 3 12 7 536 8 1165 2 1085 1
1143 -16 1148 -16 5 -15 7 5 26 17 15 19 18 6 14 -10 -3 -18 -1 -18 4 0 12
-19 14 -21 3z"/>
<path d="M16617 9499 c7 -7 15 -10 18 -7 3 3 -2 9 -12 12 -14 6 -15 5 -6 -5z"/>
<path d="M16644 9478 c-4 -7 -3 -8 5 -4 16 10 51 -3 48 -17 -1 -7 7 -11 20
-10 16 2 21 -2 16 -12 -6 -16 13 -45 30 -45 5 0 2 9 -7 19 -10 11 -13 22 -8
25 6 3 12 -1 16 -9 3 -8 13 -15 21 -15 27 0 6 19 -55 50 -66 33 -76 35 -86 18z"/>
<path d="M1580 9440 c-9 -6 -10 -10 -3 -10 6 0 15 5 18 10 8 12 4 12 -15 0z"/>
<path d="M16794 9395 c-15 -11 -16 -15 -4 -16 8 -1 18 -1 22 0 4 0 5 -6 2 -14
-4 -8 -1 -15 5 -15 14 0 10 -22 -6 -35 -10 -8 -13 -115 -15 -442 -2 -237 1
-429 5 -426 5 3 4 -4 -2 -15 -17 -31 -14 -39 18 -45 34 -7 54 -37 44 -64 -6
-15 -8 -13 -13 12 -4 23 -12 31 -37 36 -35 7 -35 -5 -1 -29 19 -14 26 -38 7
-26 -13 8 4 -27 33 -68 11 -16 17 -36 14 -45 -3 -10 -1 -25 4 -33 7 -11 10
-11 10 -2 0 7 5 10 10 7 6 -3 10 -2 10 4 0 16 -18 22 -23 9 -4 -8 -6 -9 -6 -2
-1 16 26 37 39 29 6 -3 7 -11 4 -17 -4 -6 -1 -8 7 -6 8 3 13 10 12 16 -1 5 4
13 13 16 8 3 12 1 9 -4 -3 -6 1 -7 9 -4 9 3 14 9 11 14 -2 4 8 7 23 8 15 0 44
8 64 16 53 22 143 20 192 -4 51 -24 82 -69 97 -138 35 -167 -112 -469 -282
-580 -32 -22 -56 -42 -51 -47 4 -5 1 -5 -6 -1 -7 4 -18 3 -25 -2 -17 -14 -154
-62 -180 -63 -14 -1 -9 -4 13 -9 l35 -7 -35 -3 c-19 -1 -46 -6 -60 -11 -21 -7
-20 -8 10 -4 34 4 34 4 11 -9 -23 -13 -23 -13 -2 -19 l21 -5 0 -866 c0 -634
-3 -871 -11 -885 -7 -10 -9 -30 -5 -44 8 -33 43 -36 114 -9 106 40 230 4 274
-81 31 -60 31 -176 -1 -272 -23 -68 -64 -154 -88 -185 -57 -73 -83 -112 -78
-121 4 -5 3 -8 -2 -7 -13 4 -83 -53 -77 -63 3 -5 -3 -6 -12 -2 -11 4 -15 2
-11 -4 4 -6 -1 -10 -11 -9 -9 0 -16 -4 -15 -11 2 -7 -4 -10 -12 -7 -11 5 -13
2 -9 -10 3 -9 1 -16 -5 -16 -6 0 -11 5 -11 11 0 5 -13 2 -30 -8 -24 -14 -27
-19 -15 -26 8 -4 24 -3 36 3 11 7 23 9 26 6 4 -3 -8 -11 -25 -17 -23 -8 -32
-18 -34 -37 -2 -15 -9 -27 -17 -27 -23 0 -24 -22 -2 -28 20 -5 21 -14 23 -327
2 -177 1 -324 -2 -327 -3 -2 -5 -8 -5 -11 -2 -25 -19 -52 -32 -52 -10 0 -13
-6 -9 -16 3 -9 6 -18 6 -20 0 -2 5 -4 11 -4 6 0 8 7 5 15 -3 9 1 18 9 21 8 4
15 12 15 20 0 8 5 14 10 14 15 0 12 -16 -6 -34 -21 -22 -2 -20 27 2 24 19 109
29 109 14 0 -4 15 -13 33 -20 161 -59 275 -437 203 -673 -30 -98 -118 -244
-198 -329 -13 -13 -22 -28 -20 -33 1 -5 -2 -6 -6 -3 -5 3 -17 -3 -26 -13 -14
-15 -15 -20 -4 -24 7 -2 2 -2 -12 1 -38 8 -118 8 -185 0 l-60 -7 68 3 c37 2
69 1 71 -3 3 -4 19 -8 37 -9 18 -1 35 -5 38 -9 4 -3 -18 -3 -46 -1 -29 3 -53
1 -53 -3 0 -5 4 -9 9 -9 6 0 10 -109 11 -271 0 -150 3 -275 5 -280 3 -4 0 -11
-6 -15 -8 -5 -9 -3 -4 6 5 8 4 11 -2 7 -6 -4 -11 -24 -11 -46 -1 -34 3 -40 26
-46 25 -6 25 -7 7 -17 -14 -8 -20 -8 -23 0 -2 7 -11 12 -20 12 -13 0 -12 -4 6
-20 21 -20 22 -20 52 -1 18 10 28 21 23 23 -4 3 -2 3 6 1 8 -2 22 4 33 14 14
13 16 19 6 26 -9 6 -8 7 5 3 22 -7 69 22 60 37 -3 6 -1 7 5 3 27 -17 243 182
356 328 123 158 206 317 274 521 84 252 77 22 77 2685 l0 2365 -23 110 c-41
193 -119 400 -209 548 -96 160 -243 335 -366 434 -40 32 -75 62 -78 67 -4 5
-12 5 -18 2 -6 -4 -11 -4 -10 1 4 22 -3 24 -23 7 -21 -18 -22 -18 -8 0 13 16
12 20 -4 32 -11 7 -23 11 -29 7 -6 -3 -7 -1 -3 5 3 6 -3 16 -15 22 -12 7 -19
8 -16 3 3 -4 -6 -9 -19 -9 -23 -2 -23 -1 -8 11 16 12 16 13 -4 24 -26 14 -24
14 -48 -4z m41 -5 c3 -6 -1 -7 -9 -4 -18 7 -21 14 -7 14 6 0 13 -4 16 -10z
m70 -90 c-3 -5 -11 -10 -16 -10 -6 0 -7 5 -4 10 3 6 11 10 16 10 6 0 7 -4 4
-10z m-55 -1018 c0 -15 -2 -15 -10 -2 -13 20 -13 33 0 25 6 -3 10 -14 10 -23z
m17 -14 c-3 -7 -5 -2 -5 12 0 14 2 19 5 13 2 -7 2 -19 0 -25z m-4 -885 c-7 -2
-19 -2 -25 0 -7 3 -2 5 12 5 14 0 19 -2 13 -5z m-40 -20 c-7 -2 -19 -2 -25 0
-7 3 -2 5 12 5 14 0 19 -2 13 -5z m4 -1769 c-3 -3 -12 -4 -19 -1 -8 3 -5 6 6
6 11 1 17 -2 13 -5z m100 0 c-3 -3 -12 -4 -19 -1 -8 3 -5 6 6 6 11 1 17 -2 13
-5z m-79 -21 c-10 -2 -26 -2 -35 0 -10 3 -2 5 17 5 19 0 27 -2 18 -5z m7 -23
c-11 -5 -27 -9 -35 -9 -9 0 -8 4 5 9 11 5 27 9 35 9 9 0 8 -4 -5 -9z m52
-1566 c-3 -3 -12 -4 -19 -1 -8 3 -5 6 6 6 11 1 17 -2 13 -5z m-57 -14 c-20
-13 -33 -13 -25 0 3 6 14 10 23 10 15 0 15 -2 2 -10z m107 -1116 c-3 -3 -12
-4 -19 -1 -8 3 -5 6 6 6 11 1 17 -2 13 -5z m-84 -21 c-7 -2 -19 -2 -25 0 -7 3
-2 5 12 5 14 0 19 -2 13 -5z"/>
<path d="M16720 9380 c0 -12 28 -25 36 -17 3 3 -4 10 -15 17 -15 7 -21 7 -21
0z"/>
<path d="M16778 9363 c7 -3 16 -2 19 1 4 3 -2 6 -13 5 -11 0 -14 -3 -6 -6z"/>
<path d="M14939 9324 c-320 -219 -572 -580 -674 -968 -58 -221 -56 -100 -53
-2646 l4 -2335 22 -100 c53 -229 141 -439 258 -612 96 -141 229 -291 329 -369
28 -21 52 -41 55 -45 3 -3 23 -16 44 -29 35 -21 39 -22 33 -6 -6 16 -5 17 8 6
8 -7 13 -16 10 -20 -3 -4 2 -10 10 -14 16 -6 17 18 2 42 -5 7 -4 12 2 12 8 0
11 171 11 554 l0 555 -22 15 c-12 9 -31 16 -41 16 -9 0 -20 7 -24 16 -3 8 -12
13 -20 10 -8 -4 -11 -1 -7 5 3 6 -11 30 -33 52 -101 107 -175 242 -201 367
-14 67 -15 93 -4 184 6 58 21 138 33 179 26 90 98 200 157 242 37 25 53 30
108 31 35 0 67 4 71 8 5 5 -3 5 -17 1 -22 -7 -23 -6 -12 7 10 13 12 164 8 739
-5 843 -4 810 -22 807 -7 -2 -13 2 -14 7 0 6 -16 26 -34 45 -163 172 -256 435
-201 568 35 83 89 115 195 115 44 0 66 3 55 8 -17 6 -15 8 10 9 30 2 30 2 5
10 l-25 8 25 1 c24 2 24 2 6 16 -15 11 -17 17 -7 29 14 17 15 863 1 886 -5 9
-4 20 3 29 10 12 8 13 -13 7 l-25 -8 23 17 23 17 -20 15 c-26 17 -28 35 -3 26
9 -3 6 3 -8 13 -14 10 -28 22 -31 27 -4 5 -12 7 -18 3 -6 -4 -9 -2 -6 6 2 7
-12 32 -33 55 -49 55 -137 223 -156 299 -39 150 -7 272 81 315 34 17 65 22
120 23 77 1 88 6 51 24 l-23 11 25 0 c20 1 22 3 10 11 -12 7 -12 12 -2 22 19
19 17 622 -2 640 -12 11 -11 15 8 25 21 12 21 12 -3 13 -24 0 -24 1 -5 14 10
8 16 17 13 20 -3 4 -30 -10 -60 -30z m18 -740 c-3 -3 -12 -4 -19 -1 -8 3 -5 6
6 6 11 1 17 -2 13 -5z"/>
<path d="M3754 8980 c0 -10 2 -17 5 -15 2 3 11 -1 19 -8 11 -9 11 -4 -2 16
-22 32 -22 32 -22 7z"/>
<path d="M3766 8916 c-3 -11 -1 -25 4 -31 15 -19 18 -1765 3 -1765 -6 0 -15
-5 -18 -10 -4 -6 7 -5 24 2 l31 13 1 895 c0 492 0 900 -1 907 0 20 -38 10 -44
-11z m44 -7 c0 -6 -5 -7 -12 -3 -7 5 -9 2 -5 -9 4 -11 2 -14 -9 -10 -17 6 -17
10 -1 27 13 15 27 12 27 -5z"/>
<path d="M15746 8615 c-3 -9 -6 -22 -5 -28 0 -7 5 -1 10 12 5 13 8 26 5 28 -2
2 -6 -3 -10 -12z"/>
<path d="M15706 8577 c3 -10 9 -15 12 -12 3 3 0 11 -7 18 -10 9 -11 8 -5 -6z"/>
<path d="M15736 8504 c-3 -9 -4 -19 -1 -22 3 -3 5 1 6 9 1 8 5 3 9 -11 7 -21
8 -21 9 -5 0 11 -3 26 -8 33 -6 11 -10 10 -15 -4z"/>
<path d="M16760 8463 c-13 -15 -12 -16 4 -10 10 4 20 7 22 7 2 0 4 5 4 10 0
15 -13 12 -30 -7z"/>
<path d="M16718 8440 c18 -11 35 -27 38 -35 4 -8 10 -15 16 -15 5 0 6 5 2 11
-3 6 0 15 7 20 7 4 10 11 6 16 -5 4 -11 2 -16 -5 -5 -9 -12 -8 -27 5 -10 10
-28 19 -39 21 -14 2 -10 -3 13 -18z"/>
<path d="M15696 7965 c-9 -26 -7 -32 5 -12 6 10 9 21 6 23 -2 3 -7 -2 -11 -11z"/>
<path d="M16340 7711 c0 -6 4 -13 10 -16 6 -3 7 1 4 9 -7 18 -14 21 -14 7z"/>
<path d="M16715 7400 c3 -5 -2 -10 -11 -10 -10 0 -14 -3 -11 -7 4 -3 17 -1 30
5 12 6 29 13 37 15 8 3 0 6 -18 6 -20 1 -31 -3 -27 -9z"/>
<path d="M16620 7390 c-18 -12 -2 -12 25 0 13 6 15 9 5 9 -8 0 -22 -4 -30 -9z"/>
<path d="M1600 7110 c0 -5 5 -10 11 -10 5 0 7 5 4 10 -3 6 -8 10 -11 10 -2 0
-4 -4 -4 -10z"/>
<path d="M3776 7091 c-4 -5 0 -12 6 -14 10 -4 10 -6 0 -6 -17 -1 -5 -21 12
-21 8 0 14 11 14 25 0 24 -21 34 -32 16z"/>
<path d="M1770 7030 c-8 -5 -10 -10 -5 -10 6 0 17 5 25 10 8 5 11 10 5 10 -5
0 -17 -5 -25 -10z"/>
<path d="M3820 6976 c0 -8 4 -17 9 -20 5 -4 7 3 4 14 -6 23 -13 26 -13 6z"/>
<path d="M3801 6938 c-1 -34 -11 -59 -21 -53 -4 2 -6 -12 -4 -33 1 -20 -3 -40
-9 -44 -9 -6 -9 -8 1 -8 9 0 12 -111 12 -519 0 -335 4 -522 10 -526 6 -4 5
-16 -3 -33 -14 -29 -15 -115 -2 -172 7 -30 9 -32 16 -15 6 15 8 11 9 -20 2
-38 2 -39 10 -12 5 17 5 39 -1 54 -12 32 -12 52 1 33 7 -10 8 -4 2 20 -7 35
-8 1171 -1 1268 2 28 1 52 -3 52 -3 0 -9 8 -11 18 -3 11 -5 7 -6 -10z m-1
-1373 c0 -5 -5 -3 -10 5 -5 8 -10 20 -10 25 0 6 5 3 10 -5 5 -8 10 -19 10 -25z"/>
<path d="M10235 6810 c-3 -6 1 -7 9 -4 18 7 21 14 7 14 -6 0 -13 -4 -16 -10z"/>
<path d="M15726 6765 c-9 -26 -7 -32 5 -12 6 10 9 21 6 23 -2 3 -7 -2 -11 -11z"/>
<path d="M10295 6730 c4 -6 11 -8 16 -5 14 9 11 15 -7 15 -8 0 -12 -5 -9 -10z"/>
<path d="M15742 6705 c0 -16 2 -22 5 -12 2 9 2 23 0 30 -3 6 -5 -1 -5 -18z"/>
<path d="M10205 6360 c-3 -5 1 -10 9 -10 8 0 18 5 21 10 3 6 -1 10 -9 10 -8 0
-18 -4 -21 -10z"/>
<path d="M1605 6290 c-19 -7 -19 -8 -2 -15 14 -6 16 -10 6 -16 -9 -5 -5 -10
14 -14 24 -7 39 -25 19 -25 -5 0 -17 -6 -27 -14 -17 -12 -15 -15 33 -28 70
-21 102 -14 103 23 2 49 3 52 24 59 16 6 12 9 -20 15 -22 3 -47 9 -55 12 -27
10 -75 12 -95 3z m65 -10 c11 -8 7 -9 -15 -4 -37 8 -45 14 -19 14 10 0 26 -5
34 -10z m87 -16 c-3 -3 -12 -4 -19 -1 -8 3 -5 6 6 6 11 1 17 -2 13 -5z m-94
-11 c-7 -2 -19 -2 -25 0 -7 3 -2 5 12 5 14 0 19 -2 13 -5z"/>
<path d="M10240 6230 c-13 -9 -13 -10 0 -10 8 0 22 5 30 10 13 9 13 10 0 10
-8 0 -22 -5 -30 -10z"/>
<path d="M10218 6193 c7 -3 16 -2 19 1 4 3 -2 6 -13 5 -11 0 -14 -3 -6 -6z"/>
<path d="M10180 6179 c0 -5 5 -7 10 -4 6 3 10 8 10 11 0 2 -4 4 -10 4 -5 0
-10 -5 -10 -11z"/>
<path d="M10292 5818 c2 -13 8 -23 13 -23 6 0 11 10 13 23 2 15 -2 22 -13 22
-11 0 -15 -7 -13 -22z"/>
<path d="M10296 5765 c4 -11 -1 -15 -17 -15 -23 0 -22 -1 5 -15 20 -11 33 -12
40 -5 7 7 4 10 -9 10 -11 0 -16 4 -10 8 16 11 16 32 0 32 -9 0 -12 -6 -9 -15z"/>
<path d="M16240 5756 c0 -2 7 -9 15 -16 9 -7 15 -8 15 -2 0 5 -7 12 -15 16 -8
3 -15 4 -15 2z"/>
<path d="M10268 5713 c7 -3 16 -2 19 1 4 3 -2 6 -13 5 -11 0 -14 -3 -6 -6z"/>
<path d="M16259 5683 c-13 -16 -12 -17 4 -4 9 7 17 15 17 17 0 8 -8 3 -21 -13z"/>
<path d="M16680 5638 c0 -9 5 -20 10 -23 13 -8 13 5 0 25 -8 13 -10 13 -10 -2z"/>
<path d="M16216 5625 c-3 -9 -6 -22 -5 -28 0 -7 5 -1 10 12 5 13 8 26 5 28 -2
2 -6 -3 -10 -12z"/>
<path d="M16653 5616 c7 -14 13 -23 15 -21 7 6 -9 45 -18 45 -4 0 -3 -11 3
-24z"/>
<path d="M16710 5600 c0 -7 -3 -10 -7 -7 -8 8 -33 -12 -33 -26 0 -6 7 -2 16 9
15 19 15 18 11 -3 -3 -13 -3 -23 -1 -23 8 0 25 52 19 58 -3 3 -5 -1 -5 -8z"/>
<path d="M16171 5574 c0 -11 3 -14 6 -6 3 7 2 16 -1 19 -3 4 -6 -2 -5 -13z"/>
<path d="M16702 5538 c-7 -7 -12 -16 -12 -21 0 -5 7 -1 16 8 9 9 14 18 12 20
-2 3 -10 -1 -16 -7z"/>
<path d="M16712 5504 c-10 -8 -12 -14 -5 -14 6 0 15 5 18 10 3 6 11 10 17 10
6 0 1 -11 -11 -24 -21 -22 -21 -24 -5 -21 11 1 18 8 16 14 -1 7 6 11 15 9 11
-2 17 2 15 11 -2 8 3 11 12 8 9 -4 17 -3 20 1 8 13 -74 9 -92 -4z"/>
<path d="M16141 5414 c0 -11 3 -14 6 -6 3 7 2 16 -1 19 -3 4 -6 -2 -5 -13z"/>
<path d="M1713 5408 c-13 -6 -23 -15 -23 -19 0 -4 -13 -10 -30 -14 -37 -8 -44
-19 -25 -39 13 -13 15 -203 18 -1639 2 -1619 2 -1624 -18 -1620 -11 2 7 -10
40 -26 70 -35 98 -40 67 -12 -12 10 -19 21 -15 25 10 10 25 7 18 -4 -3 -5 -3
-10 2 -10 9 0 7 3266 -2 3288 -3 8 -2 19 2 25 16 25 12 38 -10 31 -22 -6 -22
-6 -2 10 23 18 11 20 -22 4z"/>
<path d="M3760 5389 c0 -5 6 -9 13 -10 6 0 3 -4 -8 -9 -17 -7 -17 -9 -2 -9 9
-1 17 -9 17 -18 1 -149 -3 -2699 -4 -2728 -1 -22 -5 -47 -10 -55 -4 -8 4 -1
18 17 l27 32 0 1370 c-1 903 3 1372 9 1376 15 9 4 22 -30 33 -18 7 -30 7 -30
1z m40 -2769 c0 -5 -4 -10 -10 -10 -5 0 -10 5 -10 10 0 6 5 10 10 10 6 0 10
-4 10 -10z"/>
<path d="M16126 5364 c-8 -22 -7 -82 2 -87 4 -3 7 19 7 49 1 30 0 54 -1 54 -1
0 -5 -7 -8 -16z"/>
<path d="M10298 5293 c7 -3 16 -2 19 1 4 3 -2 6 -13 5 -11 0 -14 -3 -6 -6z"/>
<path d="M16000 5251 c0 -17 2 -31 4 -31 8 0 13 51 5 56 -5 3 -9 -9 -9 -25z"/>
<path d="M10270 5263 c8 -3 18 -10 21 -16 4 -6 15 -7 25 -2 17 7 16 9 -6 15
-31 10 -64 12 -40 3z"/>
<path d="M16081 5184 c0 -11 3 -14 6 -6 3 7 2 16 -1 19 -3 4 -6 -2 -5 -13z"/>
<path d="M16101 5174 c0 -11 3 -14 6 -6 3 7 2 16 -1 19 -3 4 -6 -2 -5 -13z"/>
<path d="M16002 5145 c0 -16 2 -22 5 -12 2 9 2 23 0 30 -3 6 -5 -1 -5 -18z"/>
<path d="M16081 5134 c0 -11 3 -14 6 -6 3 7 2 16 -1 19 -3 4 -6 -2 -5 -13z"/>
<path d="M16180 5015 c0 -5 5 -17 10 -25 5 -8 10 -10 10 -5 0 6 -5 17 -10 25
-5 8 -10 11 -10 5z"/>
<path d="M16216 4927 c3 -10 9 -15 12 -12 3 3 0 11 -7 18 -10 9 -11 8 -5 -6z"/>
<path d="M10130 4890 c-8 -5 -10 -10 -5 -10 6 0 17 5 25 10 8 5 11 10 5 10 -5
0 -17 -5 -25 -10z"/>
<path d="M16260 4861 c0 -5 5 -13 10 -16 6 -3 10 -2 10 4 0 5 -4 13 -10 16 -5
3 -10 2 -10 -4z"/>
<path d="M16755 4730 c3 -5 11 -10 16 -10 6 0 7 5 4 10 -3 6 -11 10 -16 10 -6
0 -7 -4 -4 -10z"/>
<path d="M16700 4720 c0 -5 4 -10 9 -10 6 0 13 5 16 10 3 6 -1 10 -9 10 -9 0
-16 -4 -16 -10z"/>
<path d="M16588 4693 c7 -3 16 -2 19 1 4 3 -2 6 -13 5 -11 0 -14 -3 -6 -6z"/>
<path d="M10220 4461 c0 -5 -8 -11 -17 -13 -16 -3 -16 -4 -2 -10 9 -4 20 1 27
13 8 12 8 19 2 19 -5 0 -10 -4 -10 -9z"/>
<path d="M10297 4319 c7 -7 15 -10 18 -7 3 3 -2 9 -12 12 -14 6 -15 5 -6 -5z"/>
<path d="M15742 4100 c0 -19 2 -27 5 -17 2 9 2 25 0 35 -3 9 -5 1 -5 -18z"/>
<path d="M15742 3990 c0 -14 2 -19 5 -12 2 6 2 18 0 25 -3 6 -5 1 -5 -13z"/>
<path d="M15721 3984 c0 -11 3 -14 6 -6 3 7 2 16 -1 19 -3 4 -6 -2 -5 -13z"/>
<path d="M16782 3988 c-15 -15 -15 -28 0 -28 6 0 8 3 5 7 -4 3 -2 12 4 20 14
16 7 17 -9 1z"/>
<path d="M10210 3975 c-7 -9 -8 -15 -2 -15 5 0 12 7 16 15 3 8 4 15 2 15 -2 0
-9 -7 -16 -15z"/>
<path d="M16730 3887 c12 -16 12 -20 -1 -28 -8 -5 -10 -9 -5 -9 5 0 -1 -11
-14 -25 -13 -14 -21 -27 -18 -30 3 -3 18 13 33 35 28 40 28 41 10 58 -18 16
-18 16 -5 -1z"/>
<path d="M10305 3840 c3 -5 8 -10 11 -10 2 0 4 5 4 10 0 6 -5 10 -11 10 -5 0
-7 -4 -4 -10z"/>
<path d="M16210 3701 c0 -5 9 -7 20 -4 11 3 20 7 20 9 0 2 -9 4 -20 4 -11 0
-20 -4 -20 -9z"/>
<path d="M16183 3668 c-15 -20 -25 -38 -20 -38 3 0 12 11 21 25 17 26 16 35
-1 13z"/>
<path d="M16595 3630 c3 -5 8 -10 11 -10 2 0 4 5 4 10 0 6 -5 10 -11 10 -5 0
-7 -4 -4 -10z"/>
<path d="M16112 3570 c0 -19 2 -27 5 -17 2 9 2 25 0 35 -3 9 -5 1 -5 -18z"/>
<path d="M16081 3564 c0 -11 3 -14 6 -6 3 7 2 16 -1 19 -3 4 -6 -2 -5 -13z"/>
<path d="M16132 3550 c0 -14 2 -19 5 -12 2 6 2 18 0 25 -3 6 -5 1 -5 -13z"/>
<path d="M16120 3505 c0 -8 5 -15 10 -15 6 0 10 7 10 15 0 8 -4 15 -10 15 -5
0 -10 -7 -10 -15z"/>
<path d="M16113 3430 c0 -25 2 -35 4 -22 2 12 2 32 0 45 -2 12 -4 2 -4 -23z"/>
<path d="M16092 3440 c0 -14 2 -19 5 -12 2 6 2 18 0 25 -3 6 -5 1 -5 -13z"/>
<path d="M10280 3420 c0 -6 11 -8 28 -4 39 10 40 14 4 14 -18 0 -32 -5 -32
-10z"/>
<path d="M16201 3255 c0 -5 6 -21 14 -35 8 -14 14 -20 14 -15 0 6 -6 21 -14
35 -8 14 -14 21 -14 15z"/>
<path d="M16177 3217 c-3 -8 1 -14 8 -14 7 0 11 6 8 14 -3 7 -6 13 -8 13 -2 0
-5 -6 -8 -13z"/>
<path d="M16585 2890 c27 -12 43 -12 25 0 -8 5 -22 9 -30 9 -10 0 -8 -3 5 -9z"/>
<path d="M16690 2860 c14 -4 34 -8 45 -8 16 0 15 2 -5 8 -14 4 -34 8 -45 8
-16 0 -15 -2 5 -8z"/>
<path d="M16750 2115 c7 -8 17 -15 22 -15 6 0 5 7 -2 15 -7 8 -17 15 -22 15
-6 0 -5 -7 2 -15z"/>
<path d="M16680 2060 c-19 -11 -30 -19 -25 -19 6 0 26 8 45 19 19 11 31 19 25
19 -5 0 -26 -8 -45 -19z"/>
<path d="M16348 1943 c7 -3 16 -2 19 1 4 3 -2 6 -13 5 -11 0 -14 -3 -6 -6z"/>
<path d="M16060 1900 c34 -11 60 -11 35 0 -11 5 -29 8 -40 8 -16 0 -15 -2 5
-8z"/>
</g>
</svg>
